<svg width="30" height="30" viewBox="0 0 30 30" fill="none" xmlns="http://www.w3.org/2000/svg">
<path d="M13 6.99999C13 10.1859 10.2077 12.6509 7.04633 12.2558L6.40545 12.1757C5.48445 12.0605 4.60943 11.7071 3.86689 11.1502L1 8.99999V4.99999L3.86689 2.84982C4.60943 2.29292 5.48445 1.93943 6.40545 1.82431L7.04633 1.7442C10.2077 1.34903 13 3.81404 13 6.99999ZM13 6.99999V29H9V12M17 6.99999C17 10.1859 19.7923 12.6509 22.9537 12.2558L23.5945 12.1757C24.5156 12.0605 25.3906 11.7071 26.1331 11.1502L29 8.99999V4.99999L26.1331 2.84982C25.3906 2.29292 24.5156 1.93943 23.5945 1.82431L22.9537 1.7442C19.7923 1.34903 17 3.81404 17 6.99999ZM17 6.99999V29H21V12M4 6.99999H8M22 6.99999H26" stroke="#EF5881"/>
</svg>
