<?xml version="1.0" encoding="utf-8"?>
<!-- Generator: Adobe Illustrator 17.0.0, SVG Export Plug-In . SVG Version: 6.00 Build 0)  -->
<!DOCTYPE svg PUBLIC "-//W3C//DTD SVG 1.1//EN" "http://www.w3.org/Graphics/SVG/1.1/DTD/svg11.dtd">
<svg version="1.1" id="Layer_1" xmlns="http://www.w3.org/2000/svg" xmlns:xlink="http://www.w3.org/1999/xlink" x="0px" y="0px"
	 width="95px" height="25px" viewBox="0 0 95 25" enable-background="new 0 0 95 25" xml:space="preserve">
<rect x="5.792" y="4.125" fill="#FFFFFF" width="10" height="10.417"/>
<path fill="#FFFFFF" d="M27.861,9.609h1.329c0.831,0,1.329,0.291,1.329,0.914v3.78c0,0.623-0.498,0.914-1.329,0.914h-1.329V9.609z
	 M26.407,16.63h2.783c2.243,0,3.033-0.997,3.033-2.036v-4.362c0-1.039-0.789-1.994-3.033-1.994h-2.742
	c-0.208,0-0.291,0.083-0.291,0.291v7.768C26.158,16.505,26.241,16.63,26.407,16.63z M35.338,16.297v-5.525
	c0-0.208-0.083-0.291-0.291-0.291h-1.039c-0.249,0-0.332,0.083-0.332,0.291v5.525c0,0.208,0.083,0.332,0.332,0.332h1.039
	C35.255,16.63,35.338,16.505,35.338,16.297z M35.338,9.36V8.322c0-0.249-0.083-0.332-0.291-0.332h-1.039
	c-0.249,0-0.332,0.083-0.332,0.332V9.36c0,0.208,0.083,0.291,0.332,0.291h1.039C35.255,9.651,35.338,9.568,35.338,9.36z
	 M38.329,14.636v-2.202c0-0.332,0.083-0.665,0.665-0.665c0.623,0,1.163,0.374,1.454,0.582v2.409c-0.291,0.166-0.831,0.54-1.454,0.54
	C38.412,15.3,38.329,14.968,38.329,14.636z M36.668,14.927c0,1.08,0.582,1.786,1.828,1.786c0.955,0,1.579-0.374,1.952-0.665v1.039
	c0,0.457-0.374,0.665-1.039,0.665h-1.786c-0.208,0-0.291,0.125-0.291,0.332v0.706c0,0.249,0.083,0.291,0.291,0.291h1.786
	c1.828,0,2.659-0.706,2.659-1.786v-6.522c0-0.208-0.083-0.291-0.291-0.291h-0.955c-0.249,0-0.291,0.083-0.332,0.291v0.332
	c-0.374-0.291-0.997-0.748-1.994-0.748c-1.246,0-1.828,0.706-1.828,1.828C36.668,12.185,36.668,14.927,36.668,14.927z
	 M45.184,16.297v-5.525c0-0.208-0.083-0.291-0.291-0.291h-1.039c-0.249,0-0.332,0.083-0.332,0.291v5.525
	c0,0.208,0.083,0.332,0.332,0.332h1.039C45.1,16.63,45.184,16.505,45.184,16.297z M45.184,9.36V8.322
	c0-0.249-0.083-0.332-0.291-0.332h-1.039c-0.249,0-0.332,0.083-0.332,0.332V9.36c0,0.208,0.083,0.291,0.332,0.291h1.039
	C45.1,9.651,45.184,9.568,45.184,9.36z M49.795,10.482h-1.163V9.319c0-0.208-0.042-0.332-0.291-0.332h-1.039
	c-0.208,0-0.291,0.125-0.291,0.332v1.163H46.97l-0.582,0.083c-0.208,0-0.291,0.083-0.291,0.291v0.623
	c0,0.208,0.083,0.291,0.291,0.291h0.623v3.033c0,1.205,0.54,1.828,2.409,1.828h0.498c0.208,0,0.332-0.083,0.332-0.332v-0.706
	c0-0.208-0.125-0.291-0.332-0.291h-0.291c-0.665,0-0.997-0.208-0.997-0.665v-2.866h1.163c0.208,0,0.291-0.083,0.291-0.291v-0.706
	C50.085,10.565,50.002,10.482,49.795,10.482z M54.613,14.885c-0.291,0.208-0.831,0.54-1.371,0.54c-0.374,0-0.623-0.083-0.623-0.457
	V14.76c0-0.332,0.083-0.582,0.582-0.582h1.412V14.885z M51.165,12.143v0.166c0,0.208,0.083,0.291,0.332,0.291h0.914
	c0.208,0,0.291-0.083,0.291-0.291v-0.083c0-0.457,0.249-0.623,0.955-0.623s0.955,0.208,0.955,0.665v0.789h-1.745
	c-1.246,0-1.869,0.748-1.869,1.579v0.54c0,0.831,0.582,1.537,1.786,1.537c0.872,0,1.495-0.374,1.869-0.665v0.249
	c0.042,0.208,0.083,0.332,0.332,0.332h0.914c0.208,0,0.291-0.125,0.291-0.332v-4.154c0-1.08-0.665-1.786-2.492-1.786
	C51.913,10.357,51.165,11.063,51.165,12.143z M59.224,16.297V8.322c0-0.249-0.042-0.332-0.249-0.332h-1.039
	c-0.249,0-0.332,0.083-0.332,0.332v7.976c0,0.208,0.083,0.332,0.332,0.332h1.039C59.183,16.63,59.224,16.505,59.224,16.297z
	 M64.251,9.609h1.246c0.831,0,1.329,0.291,1.329,0.914v0.831c0,0.582-0.498,0.914-1.329,0.914h-1.246V9.609z M64.251,13.639h1.246
	c2.243,0,3.033-0.955,3.033-1.994v-1.412c0-1.039-0.789-1.994-3.033-1.994H62.88c-0.208,0-0.291,0.083-0.291,0.291v7.768
	c0,0.208,0.083,0.332,0.291,0.332h1.08c0.249,0,0.291-0.125,0.291-0.332V13.639z M73.016,14.885c-0.291,0.208-0.831,0.54-1.371,0.54
	c-0.374,0-0.623-0.083-0.623-0.457V14.76c0-0.332,0.083-0.582,0.582-0.582h1.412V14.885z M69.568,12.143v0.166
	c0,0.208,0.083,0.291,0.332,0.291h0.914c0.208,0,0.291-0.083,0.291-0.291v-0.083c0-0.457,0.249-0.623,0.955-0.623
	s0.955,0.208,0.955,0.665v0.789H71.27c-1.205,0-1.869,0.748-1.869,1.579v0.54c0,0.831,0.582,1.537,1.786,1.537
	c0.872,0,1.495-0.374,1.869-0.665v0.249c0.042,0.208,0.083,0.332,0.332,0.332h0.914c0.208,0,0.291-0.125,0.291-0.332v-4.154
	c0-1.08-0.665-1.786-2.492-1.786C70.316,10.357,69.568,11.063,69.568,12.143z M77.503,14.636v-2.202
	c0-0.332,0.125-0.665,0.706-0.665c0.623,0,1.163,0.374,1.412,0.582v2.409c-0.249,0.166-0.789,0.54-1.412,0.54
	C77.627,15.3,77.503,14.968,77.503,14.636z M75.882,14.927c0,1.08,0.582,1.786,1.828,1.786c0.955,0,1.579-0.374,1.911-0.665v1.039
	c0,0.457-0.332,0.665-0.997,0.665h-1.786c-0.208,0-0.291,0.125-0.291,0.332v0.706c0,0.249,0.083,0.291,0.291,0.291h1.786
	c1.828,0,2.659-0.706,2.659-1.786v-6.522c0-0.208-0.083-0.291-0.291-0.291h-0.997c-0.208,0-0.249,0.083-0.291,0.291v0.332
	c-0.374-0.291-0.997-0.748-1.994-0.748c-1.246,0-1.828,0.706-1.828,1.828C75.882,12.185,75.882,14.927,75.882,14.927z
	 M84.191,12.808v-0.54c0-0.415,0.291-0.665,0.997-0.665s0.955,0.249,0.955,0.665v0.54H84.191z M87.68,13.639v-1.454
	c0-1.08-0.665-1.828-2.492-1.828c-1.828,0-2.576,0.748-2.576,1.828v2.7c0,1.122,0.706,1.828,2.576,1.828
	c1.828,0,2.451-0.706,2.451-1.828V14.76c0-0.208-0.083-0.332-0.291-0.332h-0.872c-0.249,0-0.332,0.125-0.332,0.332v0.042
	c0,0.457-0.208,0.706-0.955,0.706c-0.748,0-0.997-0.249-0.997-0.706v-0.914h3.199C87.597,13.888,87.68,13.805,87.68,13.639z
	 M92.125,12.019v0.249c0,0.208,0.083,0.249,0.291,0.249h0.914c0.208,0,0.291-0.042,0.291-0.249v-0.249
	c0-0.789-0.582-1.662-2.368-1.662c-1.828,0-2.409,0.872-2.409,1.662v0.374c0,0.623,0.54,1.163,0.997,1.329l1.786,0.665
	c0.415,0.125,0.582,0.249,0.582,0.457v0.208c0,0.374-0.457,0.498-1.039,0.498c-0.54,0-0.997-0.125-0.997-0.498v-0.208
	c0-0.208-0.042-0.291-0.249-0.291h-0.955c-0.208,0-0.291,0.083-0.291,0.291v0.291c0,0.789,0.706,1.579,2.492,1.579
	c1.828,0,2.534-0.789,2.534-1.579v-0.623c0-0.623-0.415-1.039-1.205-1.288L90.713,12.6c-0.166-0.083-0.374-0.208-0.374-0.457v-0.125
	c0-0.374,0.332-0.498,0.872-0.498S92.125,11.645,92.125,12.019z"/>
<path fill="#F03223" d="M14.235,7.2v3.905h-1.703V8.322l-4.86,4.694L6.55,11.894L11.369,7.2H8.544V5.538h3.988h1.703V7.2z
	 M5.678,0.013l-5.691,5.525v19.4h14.249l5.691-5.525v-19.4C19.927,0.013,5.678,0.013,5.678,0.013z"/>
</svg>
