<svg width="30" height="30" viewBox="0 0 30 30" fill="none" xmlns="http://www.w3.org/2000/svg">
<path d="M19.6334 22.2669L19.1862 22.4905L19.1862 22.4905L19.6334 22.2669ZM19 21L19.4472 20.7764C19.3625 20.607 19.1894 20.5 19 20.5V21ZM11 21V20.5C10.8106 20.5 10.6375 20.607 10.5528 20.7764L11 21ZM28.5 11V20.0557H29.5V11H28.5ZM20.0806 22.0433L19.4472 20.7764L18.5528 21.2236L19.1862 22.4905L20.0806 22.0433ZM19 20.5H11V21.5H19V20.5ZM10.5528 20.7764L9.91935 22.0433L10.8138 22.4905L11.4472 21.2236L10.5528 20.7764ZM1.5 20.0557V11H0.5V20.0557H1.5ZM7 5.5H23V4.5H7V5.5ZM5.94427 24.5C3.48977 24.5 1.5 22.5102 1.5 20.0557H0.5C0.5 23.0625 2.93748 25.5 5.94427 25.5V24.5ZM24.0557 24.5C22.3724 24.5 20.8335 23.5489 20.0806 22.0433L19.1862 22.4905C20.1084 24.3349 21.9936 25.5 24.0557 25.5V24.5ZM28.5 20.0557C28.5 22.5102 26.5102 24.5 24.0557 24.5V25.5C27.0625 25.5 29.5 23.0625 29.5 20.0557H28.5ZM9.91935 22.0433C9.16652 23.5489 7.62764 24.5 5.94427 24.5V25.5C8.00641 25.5 9.89156 24.3349 10.8138 22.4905L9.91935 22.0433ZM29.5 11C29.5 7.41015 26.5898 4.5 23 4.5V5.5C26.0376 5.5 28.5 7.96243 28.5 11H29.5ZM1.5 11C1.5 7.96243 3.96243 5.5 7 5.5V4.5C3.41015 4.5 0.5 7.41015 0.5 11H1.5ZM6 13.5H12V12.5H6V13.5ZM8.5 10V16H9.5V10H8.5ZM22 11.5H24V10.5H22V11.5ZM18 15.5H20V14.5H18V15.5Z" fill="#EF5881"/>
</svg>
