<svg width="30" height="30" viewBox="0 0 30 30" fill="none" xmlns="http://www.w3.org/2000/svg">
<path d="M9 11V10.5C8.72386 10.5 8.5 10.7239 8.5 11H9ZM9 13L9.35355 13.3536L9.5 13.2071V13H9ZM5.58579 13.5858L5.23223 13.9393L5.23223 13.9393L5.58579 13.5858ZM13 26H13.5V25.7929L13.3536 25.6464L13 26ZM11 24H10.5V24.2071L10.6464 24.3536L11 24ZM11 21H11.5V20.7929L11.3536 20.6464L11 21ZM9 19H8.5V19.2071L8.64645 19.3536L9 19ZM9 17V16.5C8.72386 16.5 8.5 16.7239 8.5 17H9ZM18.5 1V5H19.5V1H18.5ZM17 6.5H15V7.5H17V6.5ZM11 10.5H9V11.5H11V10.5ZM8.5 11V13H9.5V11H8.5ZM8.64645 12.6464L8.06066 13.2322L8.76777 13.9393L9.35355 13.3536L8.64645 12.6464ZM5.93934 13.2322L2.35355 9.64645L1.64645 10.3536L5.23223 13.9393L5.93934 13.2322ZM12.5 9C12.5 9.82843 11.8284 10.5 11 10.5V11.5C12.3807 11.5 13.5 10.3807 13.5 9H12.5ZM15 6.5C13.6193 6.5 12.5 7.61929 12.5 9H13.5C13.5 8.17157 14.1716 7.5 15 7.5V6.5ZM8.06066 13.2322C7.47487 13.818 6.52513 13.818 5.93934 13.2322L5.23223 13.9393C6.20854 14.9156 7.79146 14.9157 8.76777 13.9393L8.06066 13.2322ZM18.5 5C18.5 5.82843 17.8284 6.5 17 6.5V7.5C18.3807 7.5 19.5 6.38071 19.5 5H18.5ZM13.5 29V26H12.5V29H13.5ZM13.3536 25.6464L11.3536 23.6464L10.6464 24.3536L12.6464 26.3536L13.3536 25.6464ZM11.5 24V21H10.5V24H11.5ZM11.3536 20.6464L9.35355 18.6464L8.64645 19.3536L10.6464 21.3536L11.3536 20.6464ZM9.5 19V17H8.5V19H9.5ZM9 17.5H17V16.5H9V17.5ZM18.5 19V20.3333H19.5V19H18.5ZM21.6667 23.5H27V22.5H21.6667V23.5ZM20.5 22.3333C20.5 22.9777 21.0223 23.5 21.6667 23.5V22.5C21.5746 22.5 21.5 22.4254 21.5 22.3333H20.5ZM19.6667 21.5C20.1269 21.5 20.5 21.8731 20.5 22.3333H21.5C21.5 21.3208 20.6792 20.5 19.6667 20.5V21.5ZM18.5 20.3333C18.5 20.9777 19.0223 21.5 19.6667 21.5V20.5C19.5746 20.5 19.5 20.4254 19.5 20.3333H18.5ZM17 17.5C17.8284 17.5 18.5 18.1716 18.5 19H19.5C19.5 17.6193 18.3807 16.5 17 16.5V17.5ZM15 28.5C7.54416 28.5 1.5 22.4558 1.5 15H0.5C0.5 23.0081 6.99187 29.5 15 29.5V28.5ZM28.5 15C28.5 22.4558 22.4558 28.5 15 28.5V29.5C23.0081 29.5 29.5 23.0081 29.5 15H28.5ZM15 1.5C22.4558 1.5 28.5 7.54416 28.5 15H29.5C29.5 6.99187 23.0081 0.5 15 0.5V1.5ZM15 0.5C6.99187 0.5 0.5 6.99187 0.5 15H1.5C1.5 7.54416 7.54416 1.5 15 1.5V0.5Z" fill="#EF5881"/>
</svg>
