<?xml version="1.0" encoding="utf-8"?>
<!-- Generator: Adobe Illustrator 22.0.1, SVG Export Plug-In . SVG Version: 6.00 Build 0)  -->
<svg version="1.1" id="Camada_1" xmlns="http://www.w3.org/2000/svg" xmlns:xlink="http://www.w3.org/1999/xlink" x="0px" y="0px"
	 viewBox="0 0 483 325" style="enable-background:new 0 0 483 325;" xml:space="preserve">
<style type="text/css">
	.st0{opacity:0.2;fill:#0B1157;}
	.st1{fill:#9A9897;}
	.st2{fill:#DCE6FB;}
	.st3{enable-background:new    ;}
	.st4{fill:#99A1DC;}
	.st5{clip-path:url(#SVGID_1_);enable-background:new    ;}
	.st6{fill:#1A1F21;}
	.st7{clip-path:url(#SVGID_2_);enable-background:new    ;}
	.st8{fill:#2A2E34;}
	.st9{clip-path:url(#SVGID_3_);enable-background:new    ;}
	.st10{fill:#C0CCF6;}
	.st11{clip-path:url(#SVGID_4_);enable-background:new    ;}
	.st12{clip-path:url(#SVGID_5_);enable-background:new    ;}
	.st13{clip-path:url(#SVGID_6_);enable-background:new    ;}
	.st14{fill:#E8F0FC;}
	.st15{fill:#DFA684;}
	.st16{fill:#664DAE;}
	.st17{fill:#7D63C8;}
	.st18{fill:#D6E0FA;}
	.st19{fill:#FFFFFF;}
	.st20{fill:#E0A483;}
	.st21{fill:#D99A77;}
	.st22{fill:#EEBDA1;}
	.st23{fill:#E6B294;}
	.st24{fill:#BB9A82;}
	.st25{fill:#AB8A74;}
	.st26{fill:#CFDAF9;}
	.st27{clip-path:url(#SVGID_9_);enable-background:new    ;}
	.st28{fill:#F3F3F3;}
	.st29{fill:#7CDAFD;}
	.st30{fill:#C8D3F7;}
	.st31{clip-path:url(#SVGID_10_);enable-background:new    ;}
	.st32{clip-path:url(#SVGID_11_);enable-background:new    ;}
	.st33{clip-path:url(#SVGID_12_);enable-background:new    ;}
	.st34{clip-path:url(#SVGID_13_);enable-background:new    ;}
	.st35{clip-path:url(#SVGID_14_);enable-background:new    ;}
	.st36{clip-path:url(#SVGID_15_);enable-background:new    ;}
	.st37{clip-path:url(#SVGID_16_);enable-background:new    ;}
	.st38{clip-path:url(#SVGID_17_);enable-background:new    ;}
	.st39{fill:#574099;}
	.st40{fill:#7CD7FB;}
	.st41{fill:#68B5F9;}
	.st42{clip-path:url(#SVGID_18_);enable-background:new    ;}
	.st43{fill:#8087A2;}
	.st44{fill:#EDF4FD;}
	.st45{fill:#B33272;}
	.st46{fill:#3C424B;}
</style>
<g id="_x31_7_x5F_man_x5F_scooter_1_">
	<path id="shadow_20_" class="st0" d="M-267.3,237.9l105.5,60.9c5,2.9,13.2,2.9,18.2,0l10.6-6.1c5-2.9,5-7.6,0-10.5l-105.5-60.9
		c-5-2.9-13.2-2.9-18.2,0l-10.6,6.1C-272.3,230.3-272.3,235-267.3,237.9z"/>
	<g id="man_5_">
		<g id="scooter_x5F_bottom_1_">
			<g>
				<path class="st1" d="M-227.9,227c0-0.1,0-0.3-0.1-0.4c-0.1-0.4-0.5-0.9-1.1-1.2l-15-8.6c-0.8-0.5-1.2-1-1.2-1.6l0,2.4
					c0,0.6,0.4,1.2,1.2,1.6l15,8.6c0.5,0.3,0.8,0.6,1,1c0.1,0.1,0.1,0.3,0.1,0.4c0,0.1,0,0.1,0,0.2L-227.9,227L-227.9,227
					L-227.9,227z"/>
				<path class="st2" d="M-229.1,228.6c1.5-0.9,1.5-2.3,0-3.2l-15-8.6c-1.6-0.9-1.6-2.3,0-3.2l0.2-0.1c1.5-0.9,4-0.9,5.6,0l71,41.1
					c1.6,0.9,1.6,2.3,0,3.2L-229.1,228.6z"/>
			</g>
			<g>
				<g class="st3">
					<path class="st4" d="M-259.6,210.7l8.4-4.9c-2.4,1.4-3.9,4.4-3.9,8.6l-8.4,4.9C-263.5,215.1-262,212.1-259.6,210.7
						L-259.6,210.7z"/>
				</g>
				<g>
					<g class="st3">
						<g class="st3">
							<defs>
								<path id="SVGID_36_" class="st3" d="M-259.4,212.2l5.8-3.3c2.1-1.2,5-1,8.2,0.8l-5.8,3.3
									C-254.4,211.1-257.3,211-259.4,212.2z"/>
							</defs>
							<use xlink:href="#SVGID_36_"  style="overflow:visible;fill:#1A1F21;"/>
							<clipPath id="SVGID_1_">
								<use xlink:href="#SVGID_36_"  style="overflow:visible;"/>
							</clipPath>
							<g class="st5">
								<path class="st6" d="M-259.4,212.2l5.8-3.3c0.4-0.2,0.7-0.4,1.2-0.5l-5.8,3.3C-258.7,211.8-259.1,212-259.4,212.2
									L-259.4,212.2z"/>
								<path class="st6" d="M-258.3,211.7l5.8-3.3c1-0.3,2.2-0.4,3.5-0.1l-5.8,3.3C-256.1,211.3-257.2,211.4-258.3,211.7
									L-258.3,211.7z"/>
								<path class="st6" d="M-254.8,211.6l5.8-3.3c1.1,0.2,2.3,0.7,3.6,1.4l-5.8,3.3C-252.5,212.3-253.7,211.8-254.8,211.6
									L-254.8,211.6z"/>
							</g>
						</g>
						<g class="st3">
							<defs>
								<path id="SVGID_38_" class="st3" d="M-237.3,237l-5.8,3.3c2.1-1.2,3.4-3.8,3.4-7.4c0-7.3-5.1-16.2-11.5-19.9l5.8-3.3
									c6.4,3.7,11.5,12.6,11.5,19.9C-233.9,233.3-235.2,235.8-237.3,237z"/>
							</defs>
							<use xlink:href="#SVGID_38_"  style="overflow:visible;fill:#1A1F21;"/>
							<clipPath id="SVGID_2_">
								<use xlink:href="#SVGID_38_"  style="overflow:visible;"/>
							</clipPath>
							<g class="st7">
								<path class="st6" d="M-251.2,213l5.8-3.3c3.7,2.1,7,6.1,9.1,10.4l-5.8,3.3C-244.2,219-247.5,215.1-251.2,213L-251.2,213z"/>
								<path class="st6" d="M-242.1,223.4l5.8-3.3c0.8,1.6,1.4,3.3,1.8,5l-5.8,3.3C-240.7,226.7-241.3,225-242.1,223.4
									L-242.1,223.4z"/>
								<path class="st6" d="M-240.3,228.4l5.8-3.3c0.4,1.5,0.6,3,0.6,4.5c0,3.6-1.3,6.2-3.4,7.4l-5.8,3.3c2.1-1.2,3.4-3.8,3.4-7.4
									C-239.7,231.5-239.9,229.9-240.3,228.4L-240.3,228.4z"/>
							</g>
						</g>
						<g>
							<path class="st8" d="M-251.2,213c6.4,3.7,11.5,12.6,11.5,19.9c0,7.3-5.2,10.3-11.6,6.6c-6.4-3.7-11.5-12.6-11.5-19.9
								C-262.8,212.3-257.6,209.3-251.2,213z"/>
						</g>
						<g>
							<g>
								<path class="st2" d="M-247.9,236.7c-1.2,0-2.4-0.4-3.8-1.1c-4.3-2.5-7.9-8.6-7.9-13.6c0-2.6,0.9-4.5,2.6-5.5
									c1.7-1,3.8-0.8,6.1,0.5l0,0c4.3,2.5,7.9,8.6,7.9,13.6c0,2.6-0.9,4.5-2.6,5.5C-246.3,236.5-247.1,236.7-247.9,236.7z
									 M-254.6,217.4c-0.6,0-1.1,0.1-1.6,0.4c-1.1,0.7-1.8,2.1-1.8,4.1c0,4.5,3.1,9.9,7,12.2c1.7,1,3.3,1.2,4.5,0.5
									c1.1-0.7,1.8-2.1,1.8-4.1c0-4.5-3.1-10-7-12.2l0,0C-252.7,217.8-253.7,217.4-254.6,217.4z"/>
							</g>
						</g>
						<g>
							<path class="st4" d="M-251.2,221.7c2.2,1.3,4,4.4,4,6.9c0,2.5-1.8,3.6-4,2.3c-2.2-1.3-4-4.4-4-6.9
								C-255.2,221.4-253.4,220.4-251.2,221.7z"/>
						</g>
					</g>
				</g>
			</g>
			<g class="st3">
				<g class="st3">
					<defs>
						<path id="SVGID_40_" class="st3" d="M-261,226.6l0-2.4c0,0.6,0.4,1.2,1.2,1.6l0,2.4C-260.6,227.8-261,227.2-261,226.6z"/>
					</defs>
					<use xlink:href="#SVGID_40_"  style="overflow:visible;fill:#C0CCF6;"/>
					<clipPath id="SVGID_3_">
						<use xlink:href="#SVGID_40_"  style="overflow:visible;"/>
					</clipPath>
					<g class="st9">
						<path class="st10" d="M-259.8,225.8l0,2.4c-0.8-0.5-1.2-1-1.2-1.6l0-2.4C-261,224.8-260.6,225.4-259.8,225.8L-259.8,225.8z"/>
					</g>
				</g>
				<g class="st3">
					<defs>
						<path id="SVGID_42_" class="st3" d="M-166.1,256.1l0,2.4c0,0.6-0.4,1.2-1.2,1.6l0-2.4C-166.5,257.2-166.1,256.7-166.1,256.1z"
							/>
					</defs>
					<use xlink:href="#SVGID_42_"  style="overflow:visible;fill:#C0CCF6;"/>
					<clipPath id="SVGID_4_">
						<use xlink:href="#SVGID_42_"  style="overflow:visible;"/>
					</clipPath>
					<g class="st11">
						<path class="st10" d="M-166.1,256.1l0,2.4c0,0.6-0.4,1.2-1.2,1.6l0-2.4C-166.5,257.2-166.1,256.7-166.1,256.1L-166.1,256.1z"
							/>
					</g>
				</g>
				<g>
					<polygon class="st10" points="-167.3,257.7 -167.3,260.1 -183.2,269.3 -183.2,266.9 					"/>
				</g>
				<g>
					<polygon class="st10" points="-188.8,266.9 -188.8,269.3 -259.8,228.2 -259.8,225.8 					"/>
				</g>
				<g>
					<path class="st2" d="M-167.3,257.7l-15.9,9.3c-1.5,0.9-4,0.9-5.6,0l-71-41.1c-1.6-0.9-1.6-2.3,0-3.2l0.2-0.1
						c1.5-0.9,4-0.9,5.6,0l15,8.6c1.6,0.9,4.1,0.9,5.6,0l4.4-2.5L-167.3,257.7z"/>
				</g>
				<g class="st3">
					<defs>
						<path id="SVGID_44_" class="st3" d="M-183.2,266.9l0,2.4c-1.5,0.9-4,0.9-5.6,0l0-2.4C-187.2,267.8-184.7,267.8-183.2,266.9z"
							/>
					</defs>
					<use xlink:href="#SVGID_44_"  style="overflow:visible;fill:#C0CCF6;"/>
					<clipPath id="SVGID_5_">
						<use xlink:href="#SVGID_44_"  style="overflow:visible;"/>
					</clipPath>
					<g class="st12">
						<path class="st10" d="M-183.2,266.9l0,2.4c-1.5,0.9-4,0.9-5.6,0l0-2.4C-187.2,267.8-184.7,267.8-183.2,266.9L-183.2,266.9z"/>
					</g>
				</g>
			</g>
			<g>
				<g class="st3">
					<g class="st3">
						<defs>
							<path id="SVGID_46_" class="st3" d="M-261,208.3l4.3-2.5c2.8-1.6,6.7-1.4,10.9,1.1l-4.3,2.5
								C-254.3,206.9-258.2,206.7-261,208.3z"/>
						</defs>
						<use xlink:href="#SVGID_46_"  style="overflow:visible;fill:#E8F0FC;"/>
						<clipPath id="SVGID_6_">
							<use xlink:href="#SVGID_46_"  style="overflow:visible;"/>
						</clipPath>
						<g class="st13">
							<path class="st14" d="M-261,208.3l4.3-2.5c0.5-0.3,1-0.5,1.5-0.7l-4.3,2.5C-260,207.8-260.5,208-261,208.3L-261,208.3z"/>
							<path class="st14" d="M-259.4,207.6l4.3-2.5c1.4-0.4,2.9-0.5,4.6-0.1l-4.3,2.5C-256.5,207.2-258,207.2-259.4,207.6
								L-259.4,207.6z"/>
							<path class="st14" d="M-254.8,207.5l4.3-2.5c1.5,0.3,3.1,0.9,4.8,1.9l-4.3,2.5C-251.7,208.4-253.3,207.8-254.8,207.5
								L-254.8,207.5z"/>
						</g>
					</g>
					<g class="st3">
						<g class="st3">
							<path class="st14" d="M-250,209.4l4.3-2.5c4.9,2.8,9.3,8.1,12.1,13.8l-4.3,2.5C-240.7,217.4-245.1,212.2-250,209.4
								L-250,209.4z"/>
							<path class="st14" d="M-237.9,223.2l4.3-2.5c1.1,2.2,1.9,4.5,2.4,6.7l-4.3,2.5C-236,227.7-236.9,225.4-237.9,223.2
								L-237.9,223.2z"/>
						</g>
					</g>
					<g>
						<path class="st10" d="M-250,209.4c6.8,3.9,12.5,12.3,14.6,20.5l-2-1c-1.9-7-6.8-14-12.5-17.3c-7.4-4.3-13.4-0.8-13.4,7.7
							l-2-1.1C-265.4,208.4-258.5,204.5-250,209.4z"/>
					</g>
				</g>
			</g>
			<g>
				<g class="st3">
					<g>
						<polygon class="st10" points="-185.1,261.4 -187.9,259.7 -165.2,237.8 -162.3,239.4 						"/>
					</g>
					<g>
						<polygon class="st10" points="-158.8,234.1 -165.2,237.8 -162.3,239.4 -158.8,237.4 						"/>
					</g>
					<g>
						<polygon class="st4" points="-158.8,237.4 -162.3,239.4 -185.1,261.4 -178.2,257.4 -158.8,238.7 						"/>
					</g>
				</g>
			</g>
		</g>
		<g>
			<g id="body_3_">
				<g id="_x30_4_x5F_man_x5F_smart_x5F_watch_4_">
					<g id="man_6_">
						<path class="st15" d="M-186.3,65.6l-16.2,0.4c0,0,0,0,0,0c6.2,15.7,9.4,28.3,12.9,33.1c1.1,1.5,1.7-0.2,3.1,0.3
							c1.8,0.6,10.2-6.1,10.2-6.1C-178.1,85.4-183,71.5-186.3,65.6z"/>
						<path class="st16" d="M-203.2,44.3c4.3-1.8,7.9,3.4,10.2,6.3c2.8,3.7,5.1,7.8,6.8,12.2c0.8,2.2,2.2,5,1.4,7.3
							c-0.8,2.6-2.7,4.5-4.9,6c-1.7,1.1-3.6,2-5.5,2.6c-3.4,1.1-4.1-1-5.3-3.7c-1.4-2.9-2.9-5.9-4.4-8.8
							C-210.1,56.2-207.8,46.2-203.2,44.3z"/>
						<g>
							<g>
								<g>
									<path class="st17" d="M-213.9,225.6c0.1,0.3,2,1.2,2.3,1.3c0.7,0.4,1,0.6,1.5,1.2c2,2.8,4.7,4.9,7.4,7
										c2.8,2.3,5,4.9,7.4,7.6c0.4,0.5,0.8,0.9,1,1.5c0.4,1.1,0.1,2.3-0.5,3.3c-0.6,1-1.5,1.7-2.5,2.3c-0.5,0.4-1.2,0.8-1.8,0.8
										c-0.4,0-0.9-0.2-1.2-0.4c-2.6-1.2-5.2-2.7-7.6-4.3c-2.2-1.5-4-3.4-6.6-4.3c-1.5-0.5-3.1-0.8-4.2-1.9
										c-1-0.9-1.4-2.3-1.5-3.6c-0.2-2.8,1.3-5.3,1.2-8c0-0.8-0.1-1.6-0.1-2.4c0.1-0.9,0.6-2.1,1.5-2.4c0.5-0.2,3.4,0.1,3.5,0.7
										L-213.9,225.6z"/>
									<path class="st4" d="M-195.2,140.8c-2.1,12.1-0.5,48.9-12.3,45.2c-3.7-1.1-9.9-8-10.1-16.1c-0.1-4.4,0.3-10.6,0.3-15
										c-0.1-9.1-9.2-39.6,9.4-44.5c2.8-0.7,7.3-6,9.6-4c0.5,0.4,1.9,2.4,2.9,6.6c0.6,2.4,0.8,6,1.1,9.2
										C-193.9,127.7-194.1,134.1-195.2,140.8z"/>
									<path class="st4" d="M-198.6,173.1c-0.1,2.8-4.9,40.5-5.9,45.2c-0.9,4.4-1,8.9-2.1,13.3c-0.2,0.6-0.3,1.3-0.7,1.9
										c-0.4,0.6-1,1.1-1.7,1.5c-2.3,1.3-5.8,1.3-8-0.3c-2.3-1.6-2.3-5.1-2.5-7.7c-0.8-8.9,0.4-24.2,0.9-33.1
										c0.4-7.4,0.5-15.9,2.4-23c1-3.6,1.6,0.7,3.7-2.4c0.8-1.1,5.1,6.6,6.3,5.9c1.3-0.7-1.6-2.9-0.1-2.8
										C-203.6,171.9-198.6,173.1-198.6,173.1z"/>
									<path class="st18" d="M-228.7,115.7c10.2-2.1,11.5-0.6,16.5-7.1c1.6,2.9,2.3,6.2,3.6,9.2c1.3,2.8,3.3,5.3,4.3,8.2
										c1,3,0.9,6.3-0.4,9.2c-0.4,1-1,1.9-1.8,2.5c-1,0.8-2.1,1.1-2.8,2.3c-0.7,1-0.9,2.3-1.1,3.5c-1.3,10.8,4.1,22.7,3,33.4
										c-0.2,2-1.3,5-3.4,5.7c-0.6,0.2-5.8,0.2-7.6-0.7c-1.2-0.6-2.2-1.5-3.1-2.6c-2-2.3-1.6,4.5-3.1,1.7
										c-5-9.4-15.1-30.7-17.2-41.3c-0.8-4.1-1.4-19.2,4.1-22.4C-236.4,116.5-230.6,116.1-228.7,115.7z"/>
									<path class="st17" d="M-239.2,110.6c0.3-1.3,0.4-2.5,0.4-3.8c0-1.5-0.5-2.9-0.6-4.4c-0.2-2.3-0.2-4.5-0.6-6.8
										c-0.9-5.6-2.9-11-4.4-16.4c-1.4-4.9-3.2-11.5-1.6-16.6c1.4-4.4,5.5-7.7,9.2-10.2c4.6-3.1,13.8-7.2,22.9-10.1
										c3.4-1.1,7.8-2.3,11.3-0.6c2.9,1.5,4.3,4.8,5.4,7.6c2.2,5.6,2.3,11.5,2.4,17.4c0.2,6.7,0.1,13.5,0.1,20.2
										c0,7.9,0.5,15.9,1.4,23.7c0.4,3.5,2.3,8.8,1.4,12c-0.9,3.3-4.3,6-7.1,7.6c-6.4,3.7-14.1,4.3-21.6,4.3
										c-4.2,0-8.4,0.2-12.5-0.5c-2.7-0.5-8.5-1.9-10-4.6c-0.3-0.7-0.4-1.4-0.4-2.2c-0.1-3,0.5-5.1,1.4-8
										C-241,116.5-239.8,113.6-239.2,110.6z"/>
								</g>
							</g>
						</g>
					</g>
				</g>
				<path class="st15" d="M-216.2,109c-2.5-10-7.1-23.1-11.8-34h-19.6c0.7,2.3,2,4.7,2.8,6.7c3.2,8.3,10.3,23.6,14.7,31.4
					c1.8,3.2,2.4-2.5,5.8-0.9c1.5,0.7,1.6,3.1,3.2,2.6C-219,114.1-215.7,111.1-216.2,109z"/>
				<path class="st15" d="M-216.5,130.9c2.6,2.1,9.2,8.1,10.6,8.9c1.4,0.8,3.4,1.1,4.6,0c1.2-0.9,4.8-0.8,4.5-2.2
					c-0.7-3.1-8.2-8.7-11.7-15.2c-1.7-3.2-8.4-13.5-10.4-16.2c-1.9-2.6-4.2-7.5-7.3-7.1c-7.1,0.9-6.5,9.5-4.3,14.3
					C-229.2,116.3-225.2,124-216.5,130.9z"/>
				<path class="st15" d="M-167.9,121.2c1.3,1.5,1.6,0.4,3.7,0.4c2,0,5.3-2.7,4.5-4.3c-2.6-4.9-15.5-23.9-18-29.3
					c-1-2.2-7.9,0.1-9.7,2.1c-4.1,4.6-2,9.2-2,9.2C-185.6,103-169.2,119.7-167.9,121.2z"/>
				<path class="st17" d="M-242,204.6c0.4,0.1,0.8,0.3,1.1,0.6c0.9,1.2,0.9,3.6,0.7,5c-0.3,2.8-1.2,5.4-1.4,8.2
					c-0.1,1.5,0,3,0.1,4.5c0.2,2,0.3,4,0.5,5.9c0.1,1.7-0.5,2.9-1.8,4.1c-0.4,0.3-0.8,0.7-1.3,0.7c-0.4,0.1-0.8,0-1.2-0.1
					c-2.2-0.5-4.2-1.5-6-2.7c-0.9-0.6-1.8-1.4-2.3-2.4c-0.4-0.9-0.5-1.9-0.5-2.9c-0.1-2-0.2-4.2,0.2-6.2c0.4-1.7,0.5-3.1,0.2-4.8
					c-0.2-1.3-0.6-2.7-0.8-4c-0.2-1.3-0.2-2.8,0.4-4c0.6-1.1,1.5-1.9,2.5-2.6c1.1-0.8,2.8-1.8,4.2-1.7c1.3,0.2,2.7,1.4,3.8,1.9
					C-243.1,204.4-242.5,204.5-242,204.6z"/>
				<path class="st18" d="M-208.4,180.2c-6.2,10.4-16.4,25.9-28.2,31.1c-7,3.1-9.7,5.9-12.7-0.3c-3.6-7.5,20-35.4,24.6-37.8
					C-222.1,172-207.5,178.9-208.4,180.2z"/>
				<path class="st16" d="M-246.3,81.6c0-0.1-0.1-0.3-0.1-0.4c-1.1-3.1-2.8-6.6-2.7-10c0.2-4.6,0.3-10.4,5.1-12.7
					c3.8-1.8,7.5,1.5,9.6,3.8c2,2.3,3.2,4.9,4.7,7.4c1.4,2.3,2.7,4.7,3.7,7.2c0.8,2,1.7,5,1.3,7.1c-0.5,2.3-2.5,3.8-4.5,5
					c-2.5,1.5-5,3-7.5,4.4c-1,0.6-2.3,1.1-3.4,0.6c-0.7-0.3-1-1-1.4-1.7C-243.2,88.8-244.9,85.2-246.3,81.6z"/>
			</g>
			<g id="head_3_">
				<g id="VR_x5F_back_8_">
					<g class="st3">
						<defs>
							<path id="SVGID_48_" class="st3" d="M-200.5,16.9l0,7.8c0,0.1,0.1,0.2,0.2,0.3c2,1.2,3.1,2.7,3,4.3l0-7.8c0-1.6-1-3.1-3-4.3
								C-200.4,17.1-200.5,17-200.5,16.9z"/>
						</defs>
						<use xlink:href="#SVGID_48_"  style="overflow:visible;fill:#F3F3F3;"/>
						<clipPath id="SVGID_8_">
							<use xlink:href="#SVGID_48_"  style="overflow:visible;"/>
						</clipPath>
					</g>
					<path class="st19" d="M-197.6,22.5c0-1.5-1-3-2.9-4.1c-0.3-0.2-0.3-0.4,0-0.6c0.3-0.2,0.7-0.2,1,0c3,1.8,4,4.3,2.9,6.5
						c-0.4-0.3-0.7-0.5-1.1-0.8C-197.6,23.2-197.6,22.8-197.6,22.5z"/>
				</g>
				<path class="st20" d="M-227.2,50.1c-0.4,11,20.4,11.2,20.1,0.8c-0.4-14.5-1.3-16.1-8.1-18.4c-1.9-0.6-3.8-1.1-5.8-1.1
					c-7.2-0.1-4.4,3.5-4.1,6.1C-224.4,45-227.1,46.1-227.2,50.1z"/>
				<path class="st21" d="M-227.2,50.1c0.1-4,2.8-5,2-12.6c-0.3-2.6-3.1-6.2,4.1-6.1c2,0,3.9,0.5,5.8,1.1c6.7,2.2,7.7,3.9,8.1,17.8
					c-5.7-0.5-10.8-6.9-16.6-3.1c-1.6,1.2-2.6,2.7-3.3,4.3C-227.2,51.1-227.3,50.6-227.2,50.1z"/>
				<g>
					<path class="st22" d="M-200,15.4c1.4,2.3,2.3,4.9,2.2,7.7c0,1.2-0.2,2.4-0.6,3.6c-0.4,1.1-1.1,2.1-1.1,3.3c0,1.4,1,2.9,1.4,4.2
						c0.4,1.2,0.6,2.5,0.2,3.7c-0.3,0.7-0.7,1.2-1.1,1.8c-1.8,2.9-0.1,7.1-3.3,9.2c-0.8,0.5-1.7,0.6-2.7,0.7
						c-1.2,0.1-6.5-1.4-8.5-2.3c-2.3-1-4.5-3.6-6.1-5.4c-1.3-1.5-3.4-3.3-4.3-5.1c-0.3-0.5,0.4-0.6-0.2-0.9
						c-0.3-0.2-0.7-2.3-1.1-2.3c-0.4,0-1-0.5-1.4-0.8c-0.7-0.5-1.1,1.3-1.3,0.4c-1-3.5-2.3-7.1-2.1-10.8c0.1-3.4,0.1-6.3,2.2-9.2
						c1.6-2.2,4-3.7,6.5-4.7c3.9-1.5,8.2-1.5,12.2-0.2C-205.4,9.5-202.1,12.1-200,15.4z"/>
					<path class="st23" d="M-230,22.3c0.1-3.4,0.1-6.3,2.2-9.2c1.6-2.2,4-3.7,6.5-4.7c2.3-0.9,4.8-1.3,7.3-1.1
						c3.7,7.4-1.7,16.8,2.4,24.4c1.3,1.8,4,3.1,4,5.4c0.9,4-3.1,7.6-0.9,11.6c-1.8-0.5-3.9-1.2-5-1.6c-2.3-1-4.5-3.6-6.1-5.4
						c-1.3-1.5-3.4-3.3-4.3-5.1c-0.3-0.5,0.4-0.6-0.2-0.9c-0.3-0.2-0.7-2.3-1.1-2.3c-0.4,0-1-0.5-1.4-0.8c-0.7-0.5-1.1,1.3-1.3,0.4
						C-228.9,29.6-230.2,26-230,22.3z"/>
					<path class="st24" d="M-212.9,18.5c-1-0.2-1.9-0.1-2.8,0.3c-1.5,0.7-2.4,2.3-2.6,3.9c-0.5,3.5,0.7,7.1,0.8,10.6
						c0,0.5,0,1.1-0.3,1.5c-0.7,1.3-2,0.6-2.8-0.2c-0.5-0.5-0.9-1.1-1.3-1.6c-0.5-0.5-1-1-1.7-1.1c-1.1-0.2-1.9,0.7-2.1,1.7
						c-0.2,0.9,0,1.9,0.3,2.8c0.1,0.2,0.5,1.8-0.1,1.8c-0.7,0-6.5-6-6.8-16.3c-0.3-9.8,6.6-11.7,6.6-11.7s3-5.1,10.9-4.7
						c4.2,0.2,8.3,1.6,11.8,3.8c0.1,0.1,0.3,0.2,0.4,0.3c1.7,1.1,3.3,2.4,4.4,4.1c3,4.7-1.1,8.5-6,7.7c-2.3-0.4-4.5-1.4-6.7-2.2
						C-211.5,18.8-212.2,18.6-212.9,18.5L-212.9,18.5z"/>
				</g>
				<path class="st25" d="M-232.4,21.8c0,1.1,0.1,2.1,0.2,3c1.2,8.4,5.9,13.3,6.5,13.3c0.7,0,0.2-1.6,0.1-1.8
					c-0.2-0.9-0.4-1.8-0.3-2.8c0.2-1,1-1.9,2.1-1.7c0.7,0.1,1.3,0.6,1.7,1.1c0.5,0.5,0.8,1.1,1.3,1.6c0.7,0.8,2.1,1.5,2.8,0.2
					c0.3-0.5,0.3-1,0.3-1.5c0-0.5-0.1-1-0.1-1.5c-0.1-0.9-0.2-1.8-0.4-2.7c-0.3-2.1-0.6-4.2-0.3-6.4c0.2-1.6,1.1-3.2,2.6-3.9
					c0.9-0.4,1.8-0.4,2.8-0.3c0,0-3.2-3.3-6-5.1c-2.8-1.8-6.9-3.3-6.9-3.3s-6.2,1.7-6.6,10.4C-232.4,20.9-232.4,21.3-232.4,21.8z"/>
				<path class="st26" d="M-232.4,21.3c0,1.1,0.1,2.1,0.2,3c2.3,1.5,4.4,2.7,10.7,5.5c2.7,1.2,5.8,1.9,7.9,2.7
					c0.2-0.6,0.4-2,0.2-2.6c-0.2-0.5-2.6-1-4.6-1.7c-1.1-0.3-10.2-4.1-14.4-8.3C-232.4,20.5-232.4,20.9-232.4,21.3z"/>
				<path class="st10" d="M-232.4,21.8c0,1.1,0.1,2.1,0.2,3c2.3,1.5,4.4,2.7,10.7,5.5c2.7,1.2,5.8,1.9,7.9,2.7
					c0.2-0.6,0.4-2,0.2-2.6c-0.2-0.5-2.6-1-4.6-1.7c-1.1-0.3-10.2-4.1-14.4-8.3C-232.4,20.9-232.4,21.3-232.4,21.8z"/>
				<path class="st23" d="M-224.6,29.1c-2.9-0.2-3.7,3.4-1.7,6.2c0.6,0.8,1.6,1.5,2.4,2.2c5.2,4.5,6.6-0.4,4.9-1.9
					C-222.9,32.1-220.9,29.3-224.6,29.1z"/>
				<path class="st15" d="M-222.8,36c-0.3-0.3-3.7-2.3-1.4-3.6c0.6-0.4,1.3,0.2,1.4,0.8c0,0.3-0.1,0.7,0,1c0,0.2,0.1,0.4,0.2,0.6
					c0.3,0.5,1.3,0.9,1.1,1.7C-221.7,37.1-222.6,36.2-222.8,36z"/>
				<g id="VR_8_">
					<g class="st3">
						<g class="st3">
							<defs>
								<path id="SVGID_50_" class="st3" d="M-216,26.9l0,7.5c0,0.1,0.1,0.2,0.2,0.3c4.4,2.6,11.7,2.6,16.2,0c2.3-1.3,3.4-3,3.4-4.7
									l0-7.5c0,1.7-1.1,3.4-3.4,4.7c-4.5,2.6-11.8,2.6-16.2,0C-215.9,27.1-216,27-216,26.9z"/>
							</defs>
							<use xlink:href="#SVGID_50_"  style="overflow:visible;fill:#F3F3F3;"/>
							<clipPath id="SVGID_9_">
								<use xlink:href="#SVGID_50_"  style="overflow:visible;"/>
							</clipPath>
							<g class="st27">
								<path class="st28" d="M-216,26.9l0,7.5c0,0.1,0.1,0.2,0.2,0.3c4.4,2.6,11.7,2.6,16.2,0c2.3-1.3,3.4-3,3.4-4.7l0-7.5
									c0,1.7-1.1,3.4-3.4,4.7c-4.5,2.6-11.8,2.6-16.2,0C-215.9,27.1-216,27-216,26.9L-216,26.9z"/>
							</g>
							<g class="st27">
								<path class="st28" d="M-216,26.9l0,7.5c0,0.1,0.1,0.2,0.2,0.3c4.4,2.6,11.7,2.6,16.2,0c2.3-1.3,3.4-3,3.4-4.7l0-7.5
									c0,1.7-1.1,3.4-3.4,4.7c-4.5,2.6-11.8,2.6-16.2,0C-215.9,27.1-216,27-216,26.9L-216,26.9z"/>
							</g>
						</g>
						<g>
							<path class="st19" d="M-215.8,26.6c0.3-0.2,0.7-0.2,1,0c2,1.1,4.5,1.7,7.1,1.7c2.6,0,5.2-0.6,7.1-1.7
								c1.5-0.9,2.4-1.9,2.8-3.1c0.4,0.2,0.8,0.5,1.1,0.8c-0.5,1.1-1.5,2-2.9,2.9c-4.5,2.6-11.8,2.6-16.2,0
								C-216.1,27-216.1,26.8-215.8,26.6z"/>
						</g>
					</g>
					<g class="st3">
						<path class="st10" d="M-213.9,30.2v3.1c4.4,1.7,10.5,1.4,14.4-0.9c1.5-0.9,2.5-1.9,3-3c0.3-0.6,0.4-1.2,0.4-1.7l0-3.1
							c0,1.7-1.1,3.4-3.4,4.7c-3.8,2.2-9.6,2.5-13.9,1C-213.7,30.3-213.8,30.3-213.9,30.2z"/>
					</g>
					<g class="st3">
						<path class="st29" d="M-213.5,30.4v2.7c4.4,1.7,10.5,1.1,14.4-1.2c1.1-0.7,2-1.5,2.6-2.5c0.3-0.6,0.4-1.2,0.4-1.7l0-3.1
							c0,1.7-1.1,3.4-3.4,4.7C-203.4,31.5-209.1,31.9-213.5,30.4z"/>
					</g>
				</g>
			</g>
			<g id="rudder_1_">
				<path class="st15" d="M-170.3,124.5c-1,2.2,0.1,4.8,0.2,7.3c0,1.2-0.2,2.4-0.1,3.6c0.1,1,0.5,2.1,1,2.9c0.1,0.2,0.3,0.4,0.6,0.6
					c0.5,0.3,1.2-0.1,1.4-0.7c0.2-0.5,0.2-1.2,0.1-1.7c-0.1-1.2-0.3-2.4-0.4-3.5c0-0.3-0.1-0.6,0-0.9c0.1-0.4,0.4-0.7,0.6-1
					c1.8-2.3,2.3-5.6,1.4-8.4c-0.4-1-1.2-3.1-2.5-2c-0.6,0.4-0.7,1.3-1,1.9C-169.4,123.2-170,123.8-170.3,124.5z"/>
				<g>
					<path class="st4" d="M-144.2,266.3c0-2-0.7-3.5-1.9-4.1l-8.5-4.9c1.2,0.7,1.9,2.1,1.9,4.1l0,7.4l8.5,4.9L-144.2,266.3z"/>
					<path class="st30" d="M-144,262.7c-0.3,0.1-0.7,0.3-1,0.5c0.5,0.8,0.8,1.8,0.8,3.1l0,7.4l0.9-0.5l0-7.4
						C-143.3,264.5-143.6,263.5-144,262.7z"/>
				</g>
				<g>
					<g>
						<g class="st3">
							<g class="st3">
								<defs>
									<path id="SVGID_52_" class="st3" d="M-169.7,260.5l6.5-3.7c2.3-1.4,5.6-1.2,9.2,0.9l-6.5,3.7
										C-164.1,259.4-167.4,259.2-169.7,260.5z"/>
								</defs>
								<use xlink:href="#SVGID_52_"  style="overflow:visible;fill:#1A1F21;"/>
								<clipPath id="SVGID_10_">
									<use xlink:href="#SVGID_52_"  style="overflow:visible;"/>
								</clipPath>
								<g class="st31">
									<path class="st6" d="M-169.7,260.5l6.5-3.7c0.4-0.2,0.8-0.4,1.3-0.6l-6.5,3.7C-168.9,260.1-169.3,260.3-169.7,260.5
										L-169.7,260.5z"/>
									<path class="st6" d="M-168.4,260l6.5-3.7c1.2-0.4,2.5-0.4,3.9-0.1l-6.5,3.7C-166,259.6-167.3,259.6-168.4,260L-168.4,260z"
										/>
									<path class="st6" d="M-164.6,259.8l6.5-3.7c1.3,0.3,2.6,0.8,4,1.6l-6.5,3.7C-161.9,260.6-163.3,260.1-164.6,259.8
										L-164.6,259.8z"/>
								</g>
							</g>
							<g class="st3">
								<defs>
									<path id="SVGID_54_" class="st3" d="M-144.9,288.3l-6.5,3.7c2.3-1.3,3.8-4.2,3.8-8.3c0-8.2-5.7-18.2-12.9-22.3l6.5-3.7
										c7.1,4.1,12.9,14.1,12.9,22.3C-141.2,284.1-142.6,287-144.9,288.3z"/>
								</defs>
								<use xlink:href="#SVGID_54_"  style="overflow:visible;fill:#1A1F21;"/>
								<clipPath id="SVGID_11_">
									<use xlink:href="#SVGID_54_"  style="overflow:visible;"/>
								</clipPath>
								<g class="st32">
									<path class="st6" d="M-160.5,261.4l6.5-3.7c4.1,2.4,7.8,6.8,10.2,11.6l-6.5,3.7C-152.7,268.2-156.4,263.8-160.5,261.4
										L-160.5,261.4z"/>
									<path class="st6" d="M-150.4,273.1l6.5-3.7c0.9,1.8,1.6,3.7,2.1,5.6l-6.5,3.7C-148.8,276.8-149.5,274.9-150.4,273.1
										L-150.4,273.1z"/>
									<path class="st6" d="M-148.3,278.7l6.5-3.7c0.4,1.7,0.6,3.4,0.6,5c0,4.1-1.4,6.9-3.8,8.3l-6.5,3.7c2.3-1.3,3.8-4.2,3.8-8.3
										C-147.7,282.1-147.9,280.4-148.3,278.7L-148.3,278.7z"/>
								</g>
							</g>
							<g>
								<path class="st8" d="M-160.5,261.4c7.1,4.1,12.9,14.1,12.9,22.3c0,8.2-5.8,11.5-13,7.4c-7.1-4.1-12.9-14.1-12.9-22.3
									C-173.5,260.6-167.7,257.3-160.5,261.4z"/>
							</g>
							<g>
								<g>
									<path class="st2" d="M-156.9,287.8c-1.3,0-2.7-0.4-4.2-1.3c-4.8-2.8-8.8-9.6-8.7-15.1c0-2.9,1-5,2.9-6.1
										c1.8-1.1,4.2-0.9,6.7,0.6l0,0c4.8,2.8,8.8,9.6,8.7,15.1c0,2.9-1,5-2.9,6.1C-155,287.6-155.9,287.8-156.9,287.8z
										 M-164.3,266.3c-0.7,0-1.3,0.1-1.8,0.5c-1.3,0.8-2,2.4-2.1,4.7c0,5,3.5,11.2,7.9,13.7c2,1.1,3.8,1.4,5.1,0.6
										c1.3-0.8,2-2.4,2-4.7c0-5-3.5-11.2-7.9-13.7C-162.2,266.7-163.3,266.3-164.3,266.3z"/>
								</g>
							</g>
							<g>
								<path class="st4" d="M-160.6,271.1c2.5,1.4,4.5,4.9,4.5,7.7c0,2.8-2,4-4.5,2.6c-2.5-1.4-4.5-4.9-4.5-7.7
									C-165,270.9-163,269.7-160.6,271.1z"/>
							</g>
						</g>
					</g>
				</g>
				<g>
					<g class="st3">
						<g class="st3">
							<defs>
								<path id="SVGID_56_" class="st3" d="M-154,256.1l8.5,4.9c-1.4-0.8-3.5-0.7-5.7,0.6l-8.5-4.9
									C-157.5,255.4-155.4,255.3-154,256.1z"/>
							</defs>
							<use xlink:href="#SVGID_56_"  style="overflow:visible;fill:#E8F0FC;"/>
							<clipPath id="SVGID_12_">
								<use xlink:href="#SVGID_56_"  style="overflow:visible;"/>
							</clipPath>
							<g class="st33">
								<path class="st14" d="M-151.2,261.7l-8.5-4.9c1.4-0.8,2.7-1.2,3.8-1.1l8.5,4.9C-148.5,260.5-149.9,260.9-151.2,261.7
									L-151.2,261.7z"/>
								<path class="st14" d="M-147.4,260.5l-8.5-4.9c0.7,0,1.4,0.2,1.9,0.5l8.5,4.9C-146,260.7-146.7,260.6-147.4,260.5
									L-147.4,260.5z"/>
							</g>
						</g>
						<g>
							<polygon class="st14" points="-151.5,261.8 -160,256.9 -159.7,256.7 -151.2,261.7 							"/>
						</g>
						<g>
							<polygon class="st14" points="-159.4,282.4 -167.8,277.5 -167.9,270.1 -159.4,275 							"/>
						</g>
						<g class="st3">
							<defs>
								<path id="SVGID_58_" class="st3" d="M-159.4,275l-8.5-4.9c0-4.8,3.5-10.7,7.9-13.2l8.5,4.9
									C-155.9,264.3-159.4,270.3-159.4,275z"/>
							</defs>
							<use xlink:href="#SVGID_58_"  style="overflow:visible;fill:#E8F0FC;"/>
							<clipPath id="SVGID_13_">
								<use xlink:href="#SVGID_58_"  style="overflow:visible;"/>
							</clipPath>
							<g class="st34">
								<path class="st14" d="M-159.4,275l-8.5-4.9c0-1.7,0.4-3.6,1.2-5.4l8.5,4.9C-158.9,271.5-159.4,273.3-159.4,275L-159.4,275z"
									/>
								<path class="st14" d="M-158.2,269.7l-8.5-4.9c0.5-1.2,1.2-2.4,2-3.5l8.5,4.9C-156.9,267.2-157.6,268.4-158.2,269.7
									L-158.2,269.7z"/>
								<path class="st14" d="M-156.1,266.1l-8.5-4.9c1.3-1.8,2.9-3.3,4.6-4.3l8.5,4.9C-153.2,262.8-154.8,264.3-156.1,266.1
									L-156.1,266.1z"/>
							</g>
						</g>
						<g>
							<path class="st30" d="M-151.2,261.7l-0.3,0.2c-4.4,2.5-7.9,8.4-7.9,13.2l0,7.4l0.9-0.5l0-7.4c0-4.2,3.1-9.5,7-11.7l0.3-0.2
								c2.7-1.6,5-1.2,6.2,0.5c0.3-0.2,0.7-0.3,1-0.5C-145.2,260.3-148,259.8-151.2,261.7z"/>
						</g>
					</g>
				</g>
				<g>
					<g class="st3">
						<g class="st3">
							<defs>
								<path id="SVGID_60_" class="st3" d="M-160.3,210.6l8.6,49.4c0,0.2,0,0.3-0.1,0.5c-0.4,1.5-2.9,2.5-5.5,2.2
									c-1-0.1-1.9-0.4-2.6-0.8c-0.9-0.5-1.4-1.2-1.4-2l-8.6-49.4c0,0.8,0.5,1.5,1.4,2c0.7,0.4,1.6,0.7,2.6,0.8
									c2.6,0.3,5.1-0.7,5.5-2.3C-160.3,210.9-160.3,210.7-160.3,210.6z"/>
							</defs>
							<use xlink:href="#SVGID_60_"  style="overflow:visible;fill:#1A1F21;"/>
							<clipPath id="SVGID_14_">
								<use xlink:href="#SVGID_60_"  style="overflow:visible;"/>
							</clipPath>
							<g class="st35">
								<path class="st6" d="M-160.3,210.6l8.6,49.4c0,0.2,0,0.3-0.1,0.5c-0.4,1.5-2.9,2.5-5.5,2.2c-1-0.1-1.9-0.4-2.6-0.8
									c-0.9-0.5-1.4-1.2-1.4-2l-8.6-49.4c0,0.8,0.5,1.5,1.4,2c0.7,0.4,1.6,0.7,2.6,0.8c2.6,0.3,5.1-0.7,5.5-2.3
									C-160.3,210.9-160.3,210.7-160.3,210.6L-160.3,210.6z"/>
							</g>
						</g>
						<g>
							<path class="st8" d="M-161.7,208.6c1.1,0.6,1.6,1.5,1.3,2.4c-0.4,1.5-2.9,2.5-5.5,2.3c-1-0.1-1.9-0.4-2.6-0.8
								c-1.1-0.6-1.6-1.5-1.3-2.4c0.4-1.5,2.9-2.5,5.5-2.3C-163.3,207.9-162.4,208.2-161.7,208.6z"/>
						</g>
					</g>
				</g>
				<g>
					<g class="st3">
						<g class="st3">
							<defs>
								<path id="SVGID_62_" class="st3" d="M-173.7,140l12.3,70.3c0,0.1,0,0.2-0.1,0.4c-0.3,1.2-2.3,2-4.4,1.8
									c-0.8-0.1-1.5-0.3-2-0.6c-0.7-0.4-1.1-1-1.1-1.6l-12.3-70.3c0,0.6,0.4,1.2,1.1,1.6c0.5,0.3,1.2,0.5,2,0.6
									c2.1,0.2,4-0.6,4.4-1.8C-173.7,140.2-173.7,140.1-173.7,140z"/>
							</defs>
							<use xlink:href="#SVGID_62_"  style="overflow:visible;fill:#CFDAF9;"/>
							<clipPath id="SVGID_15_">
								<use xlink:href="#SVGID_62_"  style="overflow:visible;"/>
							</clipPath>
							<g class="st36">
								<path class="st26" d="M-173.7,140l12.3,70.3c0,0.1,0,0.2-0.1,0.4c-0.3,1.2-2.3,2-4.4,1.8c-0.8-0.1-1.5-0.3-2-0.6
									c-0.7-0.4-1.1-1-1.1-1.6l-12.3-70.3c0,0.6,0.4,1.2,1.1,1.6c0.5,0.3,1.2,0.5,2,0.6c2.1,0.2,4-0.6,4.4-1.8
									C-173.7,140.2-173.7,140.1-173.7,140L-173.7,140z"/>
							</g>
						</g>
						<g>
							<path class="st26" d="M-174.8,138.4c0.8,0.5,1.3,1.2,1.1,1.9c-0.3,1.2-2.3,2-4.4,1.8c-0.8-0.1-1.5-0.3-2-0.6
								c-0.8-0.5-1.3-1.2-1.1-1.9c0.3-1.2,2.3-2,4.4-1.8C-176,137.9-175.3,138.1-174.8,138.4z"/>
						</g>
					</g>
				</g>
				<path class="st15" d="M-193.1,136.5c2.3,1,3.1,3.7,4.7,5.6c0.8,0.9,1.7,1.7,2.4,2.6c0.6,0.8,1,1.8,1.2,2.9c0,0.3,0.1,0.5,0,0.8
					c-0.2,0.5-1,0.7-1.5,0.4c-0.5-0.2-0.9-0.8-1.2-1.2c-0.7-1-1.4-2-2-2.9c-0.2-0.3-0.4-0.5-0.6-0.7c-0.3-0.2-0.7-0.3-1.1-0.3
					c-2.9-0.5-5.5-2.7-6.6-5.4c-0.4-1-3.3-1.9-1.6-2c0.7,0,1.9,0.3,3.5,0.1C-195.3,136.2-193.9,136.1-193.1,136.5z"/>
				<g>
					<g class="st3">
						<g class="st3">
							<defs>
								<path id="SVGID_64_" class="st3" d="M-209.1,154.2l56.5-32.8c0.4-0.2,1-0.2,1.6,0.2l-56.5,32.8
									C-208.1,154-208.7,154-209.1,154.2z"/>
							</defs>
							<use xlink:href="#SVGID_64_"  style="overflow:visible;fill:#1A1F21;"/>
							<clipPath id="SVGID_16_">
								<use xlink:href="#SVGID_64_"  style="overflow:visible;"/>
							</clipPath>
							<g class="st37">
								<path class="st6" d="M-209.1,154.2l56.5-32.8c0.1,0,0.1-0.1,0.2-0.1l-56.5,32.8C-208.9,154.1-209,154.2-209.1,154.2
									L-209.1,154.2z"/>
								<path class="st6" d="M-208.8,154.1l56.5-32.8c0.2-0.1,0.4-0.1,0.7,0l-56.5,32.8C-208.4,154-208.6,154.1-208.8,154.1
									L-208.8,154.1z"/>
								<path class="st6" d="M-208.2,154.1l56.5-32.8c0.2,0,0.5,0.1,0.7,0.3l-56.5,32.8C-207.7,154.2-208,154.1-208.2,154.1
									L-208.2,154.1z"/>
							</g>
						</g>
						<g class="st3">
							<defs>
								<path id="SVGID_66_" class="st3" d="M-149.4,126.8l-56.5,32.8c0.4-0.2,0.6-0.7,0.7-1.4c0-1.4-1-3.1-2.2-3.9l56.5-32.8
									c1.2,0.7,2.2,2.4,2.2,3.9C-148.8,126.1-149,126.6-149.4,126.8z"/>
							</defs>
							<use xlink:href="#SVGID_66_"  style="overflow:visible;fill:#1A1F21;"/>
							<clipPath id="SVGID_17_">
								<use xlink:href="#SVGID_66_"  style="overflow:visible;"/>
							</clipPath>
							<g class="st38">
								<path class="st6" d="M-207.5,154.4l56.5-32.8c0.7,0.4,1.4,1.2,1.8,2l-56.5,32.8C-206.1,155.5-206.8,154.8-207.5,154.4
									L-207.5,154.4z"/>
								<path class="st6" d="M-205.7,156.4l56.5-32.8c0.2,0.3,0.3,0.6,0.4,1l-56.5,32.8C-205.4,157-205.6,156.7-205.7,156.4
									L-205.7,156.4z"/>
								<path class="st6" d="M-205.4,157.4l56.5-32.8c0.1,0.3,0.1,0.6,0.1,0.9c0,0.7-0.3,1.2-0.7,1.4l-56.5,32.8
									c0.4-0.2,0.6-0.7,0.7-1.4C-205.2,157.9-205.3,157.6-205.4,157.4L-205.4,157.4z"/>
							</g>
						</g>
						<g>
							<path class="st8" d="M-207.5,154.4c1.2,0.7,2.2,2.4,2.2,3.9c0,1.4-1,2-2.2,1.3c-1.2-0.7-2.2-2.4-2.2-3.9
								C-209.7,154.2-208.7,153.7-207.5,154.4z"/>
						</g>
					</g>
				</g>
				<path class="st15" d="M-194,138.3c2.1,2.2,4.2,4.3,5.7,7.1c0.8,1.6,1.9,4.1,0.6,5.7c-0.5,0.6-1.1,0.8-1.7,1.1
					c-0.6,0.3-1,1-1.7,1.4c-0.5,0.3-1.2,0.2-1.7,0.6c-0.5,0.5-0.7,0.9-1.4,1.2c-0.7,0.2-1.6,0.1-2.2-0.4c-0.2,0.6-0.8,1-1.5,1.1
					c-0.9,0.1-1.7-0.5-1.8-1.4c-0.2-1-0.2-1.9-0.3-2.9c-0.1-0.9-0.8-1.7-1.3-2.4c-1.7-2.3-3.3-4.7-4.8-7.1c-0.9-1.4-1.8-2.8-1.9-4.5
					c-0.1-1.5,0.4-3.6,1.4-4.8c1.2-1.3,2.5-0.2,3.8,0.5c1.5,0.8,3,1.4,4.5,2.2C-196.9,136.3-195.2,137.1-194,138.3
					C-194,138.2-194,138.3-194,138.3z"/>
				<path class="st15" d="M-154.3,130.4c0,0.4,0,0.8-0.3,1c-0.1,0.1-0.3,0.1-0.5,0.2c-0.4,0.2-0.4,0.6-0.4,1c0,0.4,0.2,0.9,0,1.2
					c-0.1,0.2-0.3,0.3-0.4,0.4c-0.5,0.3-1.2,0.5-1.8,0.3c-0.2,0.6-0.6,1.1-1.2,1.4c-0.6,0.2-1.3,0.2-1.8-0.1
					c-0.2,0.3-0.5,0.6-0.8,0.9c-0.3,0.3-0.8,0.6-1.2,0.5c-0.3-0.1-0.5-0.2-0.6-0.5c-0.1-0.3-0.1-0.6,0.1-0.8
					c0.1-0.2,0.2-0.3,0.4-0.4c0.3-0.3,0.6-0.8,0.6-1.2c0-0.4-0.1-0.9-0.3-1.3c-0.3-0.9-0.8-1.7-1.4-2.5c-1.2-1.6-2.8-2.9-3.7-4.7
					c-1-2.3-0.7-5.1,0.9-7c1.3-1.5,5.1-3.6,6.8-1.8c2,2.2,3.7,5.4,4.7,8.2C-154.7,126.8-154.3,128.6-154.3,130.4z"/>
			</g>
		</g>
	</g>
</g>
<g id="_x32_0_x5F_man_x5F_gamer_x5F_pet_1_">
	<path id="shadow_1_" class="st0" d="M222.8,269.2c18.9,10.9,18.9,28.6,0,39.6c-18.9,10.9-49.6,10.9-68.5,0
		c-18.9-10.9-18.9-28.6,0-39.6C173.2,258.3,203.9,258.3,222.8,269.2z"/>
	<g id="man_2_">
		<path class="st22" d="M252.8,99.7c-0.3-0.3-0.7-0.3-1.1-0.2c-0.4,0.1-0.7,0.3-1,0.5c-3,2-6.4,4.7-9.1,7.1l0.2-0.1
			c-0.4,0.3-0.8,0.7-1.1,1c-0.1,0.1-0.1,0.1-0.2,0.2c-1.1,0.1-2.3,0.4-3.1,1.1c-0.6,0.5-0.9,1.1-1.2,1.8c-0.5,1.1-1.3,4.6-1.4,5.8
			c0,0.3,0.6,1.3,1,1.5c0.1,0,0.1,0,0.2-0.1l0,0.1c0.7,0.8,1.3,1.6,1.7,2.6c0.3,0.8,1.2,0.7,2,1.1c3.7-3.4,7.9-4.9,10.9-9
			c0.4-0.5,0.7-1.1,0.7-1.7c0-0.6-0.6-1.2-1.3-1.1c0.4-0.5,0.3-1.2-0.1-1.7c-0.4-0.5-1.1-0.7-1.8-0.5c0.2-0.5,0-1.1-0.5-1.5
			c-0.2-0.2-0.5-0.3-0.8-0.3c1.7-1.2,3.2-2.5,4.9-4.1c0.6-0.5,1.4-1.2,1.4-1.9C253,100.1,253,99.9,252.8,99.7z"/>
		<g id="man_3_">
			<g>
				<g>
					<g>
						<path class="st4" d="M168.2,281.5c0.2-0.6,0.6-1,1.8-1.1c1.4-0.1,2.7-0.2,4.1-0.3c1.8-0.1,3.7-0.2,5.5-0.4
							c-0.1-1.5-0.1-3-0.3-4.5c2,0.4,3-0.2,4.9-0.8c2.2-0.8,4.4-1.6,6.7-2.2c1-0.3,2-0.5,3-0.3c2.5,0.5,3.8,4.6,3.5,6.8
							c-0.2,1.5-1.3,2.8-2.5,3.8c-1.8,1.4-4.4,2.6-6.6,2.9c-2.4,0.4-4.7,1.1-6.7,2.7c-2.5,2-4.4,4.1-7.7,4.3
							c-3.4,0.2-6.2-1.8-6.3-5.3c0-1.3,0.2-2.5,0.4-3.7C168,282.5,168,281.9,168.2,281.5z"/>
						<path class="st30" d="M178.5,285.7c0-0.3,0-0.5,0-0.8c-0.2-2.8,0.9-5.1,1.9-7.6c0.4-1,0.8-1.9,1.6-2.6
							c1.8-1.5,4.7-0.2,5.9,1.8c0.5,0.9,0.8,2,1.3,3c0.9,1.8,2.8,4,5,4.1c3,0.1,6.3-0.9,9.3-1.1c1.2-0.1,2.4-0.1,3.5,0.3
							c2.6,1,3.3,5.2,2.4,7.5c-0.6,1.4-1.9,2.5-3.2,3.1c-2.1,1-4.8,1.6-7.1,1.4c-2.5-0.2-4.8,0.1-7.1,1.1c-3.9,1.8-8.4,4.5-12.3,0.9
							c-1-1-1.6-2.4-1.7-3.8C177.6,290.6,178.5,288.2,178.5,285.7z"/>
					</g>
				</g>
			</g>
		</g>
		<path class="st16" d="M170.3,171.5c1.9,1.9,8.9-1.6,9-2.5c8.4-6.5,7.4,19.5,5,29.8c-1.3,5.6-1,11.4-1.7,17
			c-0.9,6.3-2.2,12.5-4,18.7c-0.4,1.3-0.8,2.7-1.8,3.7c-1.9,2.1-5.2,1.9-8,1.4c-2.4-0.4-5.1-1.1-6.3-3.2c-0.7-1.3-0.7-2.9-0.7-4.4
			c0-4,0-8.1-0.7-12c-0.8-4.2-1.7-8.4-2.5-12.5c-0.7-3.7-1.5-7.3-1.9-11c-0.7-6.7-0.1-13.5,0.9-20.1c0.5-3.5-0.6-10,4.3-10.7
			C166.4,164.8,169.1,170.2,170.3,171.5z"/>
		<path class="st16" d="M168.4,168.9c-1.5-1.9-3.6-3.9-6.4-3.5c-5,0.7-3.8,7.2-4.3,10.7c-1,6.6-1.6,13.4-0.9,20.1
			c0.4,3.7,1.1,7.4,1.9,11c0.8,4.2,1.7,8.4,2.5,12.5c0.8,3.9,0.8,8,0.7,12c0,1.5,0,3.1,0.7,4.4c1.2,2.1,3.9,2.8,6.3,3.2
			c1,0.2,2,0.3,3,0.3c0-14.1-2.3-28.2-8.8-41.3C159,189.9,161,176.8,168.4,168.9z"/>
		<path class="st39" d="M179.4,169c-0.1,0.9-7.2,4.4-9,2.5c-0.5-0.5-1.1-1.5-2-2.6c-7.3,7.9-9.4,21.1-5.3,29.6
			c6.5,13.2,8.7,27.2,8.8,41.3c1.9,0,3.7-0.4,5-1.7c0.9-1,1.4-2.4,1.8-3.7c1.8-6.1,3.1-12.3,4-18.7c0.8-5.7,0.4-11.5,1.7-17
			C186.8,188.4,187.8,162.4,179.4,169z"/>
		<path class="st16" d="M179.7,228.5l1.4-5.8C180.5,224.6,180.1,226.5,179.7,228.5z"/>
		<path class="st16" d="M177.6,232.2c-1.4-2-5-1.9-6.2-1.4c-0.9,0.4-7.8-3.5-9.8-5c0.2,0.1-0.1,1.8-0.1,2c0,0.7-0.1,1.4-0.1,2.1
			c-0.1,1.4-0.1,2.7-0.2,4.1c-0.1,2.7-0.1,5.4-0.1,8c0,5.2,0.3,10.5,0.9,15.7c0.6,5.3,1.6,10.6,2.9,15.8c0.5,2,1,4,1.6,5.9
			c0.5,1.6,1.1,3.3,2.5,4.2c0.7,0.5,1.6,0.6,2.5,0.7c0.8,0.1,1.7,0.2,2.6,0c0.9-0.1,1.9-0.5,2.5-1.2c0.7-0.8,1.1-1.9,1.4-2.9
			c0.5-1.8,0.6-3.7,0.6-5.5c0.1-8.8-0.5-17.5-0.6-26.2c0-6.7,0.3-13.5,1.6-20.2L177.6,232.2z"/>
		<path class="st39" d="M179.7,228.5l-2.1,3.7c-0.3-0.5-0.8-1.1-1.3-1.3c-1.6-0.8-4.4-0.4-4.8-0.1c1.9,17.8,0.4,35.9,1.1,53.7
			c0.5,0,1,0,1.5-0.1c0.9-0.1,1.9-0.5,2.5-1.2c0.7-0.8,1.1-1.9,1.4-2.9c0.5-1.8,0.6-3.7,0.6-5.5c0.1-8.8-0.5-17.5-0.6-26.2
			C178.1,241.9,178.4,235.1,179.7,228.5z"/>
		<path class="st17" d="M183.3,173.3c0.8-0.4,4.9-2.5,4.9-3.6c0-0.8,2-1.4,2.5-1.4c0.9,0,1.9,0.6,2.7,1.2c1.9,1.3,3.3,3.4,4.1,5.6
			c1.2,3,1.5,6.4,1.6,9.7c0.5,9.8,0.3,19.6-0.7,29.4c-0.5,4.9-1.2,9.8-2.2,14.7c-0.5,2.4-1,4.8-1.5,7.2c-0.5,2.3-1,3-3,4.3
			c-4.2,2.6-11.7,2.3-14.6-2.4c-3.2-5.1-1.9-13-2.9-18.7c-1.5-8.3-7-14.4-9.5-22.2c-1.9-5.8-1.6-11.2-0.6-17.1
			c0.5-2.8,1.3-9.4,4.2-11.1c0.8-0.4,5.9-1.6,10,2.5C180.6,173.7,180.3,174.8,183.3,173.3z"/>
		<g>
			<g>
				<g>
					<g>
						<g>
							<g>
								<path class="st40" d="M155,150.4c-0.2-1.5-0.4-2.9-0.7-4.4c-1.2-6.9-3.3-13.7-4.2-20.7c-0.7-5.4-1.2-12.2,3.1-16.4
									c0.7-0.7,1.5-1.3,2.4-1.7c8.4-4.7,16.4,1,24.3,3.9c5.2,1.9,10.1,4.3,14.7,7.3c1.6,1,3.3,1.7,4.3,3.3
									c1.1,1.7,1.8,3.5,1.9,5.6c0.1,2.3-0.3,4.7-0.7,7c-2.3,13.4-3.3,27.1-1.6,40.6c0.7,5.8,1.4,21.7,1.4,21.7
									c-1.9,0.8-3.2,1.6-12.5,1.8c-19.4,0.3-30.1-4.5-31.2-5.6c-1.1-1-0.7-3.4-0.8-4.8c-0.1-4.2,0-8.4,0.1-12.6
									C155.7,167,156,158.7,155,150.4z"/>
							</g>
						</g>
					</g>
				</g>
			</g>
		</g>
		<g>
			<g>
				<g>
					<g>
						<g>
							<path class="st41" d="M200.9,127.2c-0.1-2.1-0.7-3.9-1.9-5.6c-1.1-1.6-2.7-2.3-4.3-3.3c-1-0.6-2-1.2-3-1.8
								c-6.1,5.2-14.5,11.3-10.2,18.8c11.2,20,13.8,41,14.4,62.3c2.2-0.3,3-0.8,4.1-1.3c0,0-0.7-15.9-1.4-21.7
								c-1.6-13.5-0.6-27.2,1.6-40.6C200.6,131.9,201,129.5,200.9,127.2z"/>
						</g>
					</g>
				</g>
			</g>
		</g>
		<g>
			<g>
				<g>
					<g>
						<g>
							<path class="st41" d="M184,112.6c-1.4-0.6-2.9-1.2-4-1.6c-5.5-2-11-5.3-16.7-5.6c-2.7,4.1-0.5,8.9,3.5,11.1
								c5.1,2.5,11.8,2.3,16.6-1.2C184.3,114.6,185,113.5,184,112.6z"/>
						</g>
					</g>
				</g>
			</g>
		</g>
		<path class="st17" d="M194.4,239.9c-0.4,4.2-0.7,8.5-1,12.7c-0.2,3.4-0.4,6.7-0.6,10.1c-0.1,2.6-0.3,5.2-0.3,7.8
			c-0.5,14.2,1,17.4-5.7,19.2c-1.5,0.4-3.1,0.5-4.6,0.2c-4.4-1.1-5.1-4.9-5.6-9.6c-0.3-2.7-0.4-5.9-0.5-8.6
			c-0.1-2.3-0.1-4.6-0.2-6.8c-0.1-3.1-0.1-6.2-0.1-9.3c0-4.1-0.1-8.1-0.1-12.2c0-5.2-0.5-10.5-0.5-15.7c0-0.8,0.5-1.5,1.1-1.9
			c0.8-0.5,16.5,5.2,18,7C194.2,232.7,194.9,234.7,194.4,239.9z"/>
		<path class="st40" d="M197.5,119.9c-2.8-1.9-6.2-3.4-9.3-2c-1.3,0.6-2.3,1.7-3.2,2.8c-2.3,3-3.9,6.4-3.6,10.3
			c0,0.7,0.2,1.5,0.4,2.1c1,2.5,3.4,3.3,5.6,4.3c2.6,1.3,5.2,2.8,7.7,4.2c5.1,2.9,10.1,6,15.6,8.2c3.2,1.3,6.9,2.3,10,0.9
			c2.1-0.9,3.7-3,4.2-5.2c1.1-5.5-3.1-6.8-3.6-7.2C203.4,124.9,197.1,119.6,197.5,119.9z"/>
		<path class="st40" d="M239.1,116.2c1,0.6,2.9,2,2.9,3.3c0,1.1-1.3,2.8-1.8,3.7c-1.6,3-3.2,6-4.8,8.9c-0.7,1.3-1.5,2.7-2.3,4
			c-2.3,3.8-4.9,7.4-7.9,10.7c-1.1,1.3-3,3.4-4.7,4c-1.7,0.5-3.2-0.3-4.6-1.5c-2.5-2.1-4.3-5.1-3.7-8.3c0.6-3.2,2.7-5.5,4.7-7.9
			c4.5-5.4,9.4-10.5,14.6-15.3c0.9-0.8,1.9-1.7,3-2.2C235.8,115.2,237.6,115.4,239.1,116.2z"/>
		<path class="st22" d="M182,104.2c0.3-2.1,1.9-1.6,1.1-3.5c-0.7-1.6-1.7-3.1-3.1-4.1c-1.4-1.1-3.1-1.7-4.8-1.6
			c-0.6,0-1,0.4-1.6,0.4c-1.6,0-3.3-0.3-4.9-0.1c-1.6,0.2-3.1,0.4-3.1,2.2c0,2.4,0.1,4.8-0.7,7.2c-0.4,1.3-1.1,2.5-1.2,3.9
			c-0.2,2.6,1.7,5.1,4.1,6.3c2.9,1.4,6.3,1.3,9.4,0.8c1.6-0.2,3.8-0.5,4.7-2c0.7-1.1,0.4-2.6,0.2-3.8
			C181.9,107.9,181.8,106.1,182,104.2z"/>
		<g>
			<g>
				<g class="st3">
					<g class="st3">
						<defs>
							<path id="SVGID_7_" class="st3" d="M178.5,73l-6.8,4c0.5-0.3,1.1-0.2,1.9,0.2l6.8-4C179.7,72.7,179,72.7,178.5,73z"/>
						</defs>
						<clipPath id="SVGID_18_">
							<use xlink:href="#SVGID_7_"  style="overflow:visible;"/>
						</clipPath>
						<g class="st42">
							<path class="st43" d="M173.6,77.1l6.8-4c-0.7-0.4-1.4-0.5-1.9-0.2l-6.8,4C172.2,76.6,172.8,76.7,173.6,77.1L173.6,77.1z"/>
						</g>
					</g>
				</g>
			</g>
			<g>
				<g>
					<path class="st22" d="M189,77.6c1,1.2,1.8,2.6,2,4.1c0.5,3.5-0.9,7.2-0.1,10.7c0.7,3.4-0.7,11.1-7.4,13.1
						c-3.4,1-10.1-0.2-12.2-1.2c-2.9-1.4-4.8-4.2-6.5-6.9C150.8,75.2,179.6,66.1,189,77.6z"/>
				</g>
			</g>
			<path class="st26" d="M187,84.6l6.7-3.9c1.4,0.8,2.6,2.8,2.6,4.5c0,0.9,0,1.7,0,2.6c0,0.6,0,1.2,0,1.8c0,0.8-0.4,1.4-1,1.9
				c-0.5,0.4-1.2,0.8-1.7,1.2c-0.2,0.2-0.4,0.4-0.7,0.5c-0.2,0.1-0.5,0.2-0.7,0.3c-0.5,0.1-1,0.2-1.5,0.1c-0.5-0.1-0.9-0.4-1-0.9
				c-0.2-0.4-0.1-0.9-0.1-1.4c0-0.7,0-1.5,0-2.2C189.6,87.4,188.5,85.4,187,84.6z"/>
			<g>
				<polygon class="st44" points="187,84.6 193.7,80.7 179.7,72.6 173,76.5 				"/>
			</g>
			<path class="st45" d="M158.4,87.5c0.1,0.7,0.2,1.3,0.3,2c0.1,0.5,0.2,1,0.4,1.5c0.1,0.4,0.3,0.8,0.5,1.2c0.7,1.5,1.6,2.8,2.5,4.2
				c1.3,1.9,2.7,3.8,4.7,4.8c0.9,0.4,1.8,0.7,2.8,0.9c2.6,0.6,6.6,0.7,8.6-1.5c0.9-1,1.3-2.4,1.4-3.6c0.2-1.3,0.2-2.4,0.5-3.6
				c0.1-0.3,0.2-0.6,0.3-0.9c0.2-0.5,0.3-1,0.6-1.4c0.4-0.7,1.1-1.4,1.9-1.6c1.4-0.4,3,0.4,4.3-0.4c0.6-0.4,0.9-1.1,1.2-1.8
				c0.3-0.7,0.5-1.4,0.8-2.2c0.4-1,0.8-2,1.4-2.7c0.3-0.4,0.7-0.8,1-1.2c0.4-0.6,0.8-1.2,0.8-1.9c0.1-3.3-2.5-6.5-4.8-8.5
				c-1.2-1.1-2.5-2.1-4.1-2.8c-1.3-0.6-2.8-0.9-4.2-1.1c-4.2-0.6-8.8-0.5-12.5,1.6c-1,0.5-1.9,1.3-2.4,2.3c-0.1,0.2-0.2,0.5-0.4,0.7
				c-0.2,0.3-0.5,0.4-0.9,0.5c-1,0.5-1.8,1.1-2.5,1.8C157.3,76.8,157.8,82.8,158.4,87.5z"/>
			<path class="st46" d="M158.7,89.4c0.1,0.5,0.2,1,0.4,1.5c0.1,0.4,0.3,0.8,0.5,1.2c6.9,1.5,14.1,1.7,20.9,0.1
				c2.8-0.6,5.6-1.6,8.2-2.8c0.8-0.4,1.7-0.9,2.3-1.5c0.6-0.7,1-1.7,0.7-2.6c-0.4-1.3-1-1.3-2.5-0.6c-1.7,0.8-4.5,2.5-9.6,4
				C176.4,89.7,166.6,89.9,158.7,89.4z"/>
			<path class="st22" d="M181.4,87.6c-2.7-0.2-3.4,3.1-1.6,5.7c0.5,0.8,1.5,1.4,2.2,2.1c4.7,4.2,6-0.2,4.5-1.7
				C183,90.4,184.8,87.9,181.4,87.6z"/>
			<path class="st15" d="M182.1,92.7c-0.3-0.3-3.3-2.1-1.2-3.3c0.6-0.3,1.2,0.2,1.3,0.8c0,0.3-0.1,0.6,0,1c0,0.2,0.1,0.4,0.2,0.5
				c0.3,0.4,1.2,0.9,1,1.5C183.2,93.8,182.3,92.9,182.1,92.7z"/>
		</g>
	</g>
</g>
</svg>
