<svg width="30" height="30" viewBox="0 0 30 30" fill="none" xmlns="http://www.w3.org/2000/svg">
<path d="M1.70214 10.7994L1.8395 11.2801H1.8395L1.70214 10.7994ZM28.2979 10.7994L28.4352 10.3186H28.4352L28.2979 10.7994ZM9.16091 24.705L9.59986 24.9444V24.9444L9.16091 24.705ZM20.8391 24.705L21.278 24.4656L21.278 24.4656L20.8391 24.705ZM5.99423 7.51444L5.52999 7.32874L5.99423 7.51444ZM4.53576 9.8143C4.4332 10.0707 4.55791 10.3617 4.8143 10.4642C5.0707 10.5668 5.36168 10.4421 5.46424 10.1857L4.53576 9.8143ZM24.0058 7.51444L24.47 7.32874V7.32874L24.0058 7.51444ZM24.5358 10.1857C24.6383 10.4421 24.9293 10.5668 25.1857 10.4642C25.4421 10.3617 25.5668 10.0707 25.4642 9.8143L24.5358 10.1857ZM28.5 11.7302V18.4203H29.5V11.7302H28.5ZM22.4203 24.5H21.336V25.5H22.4203V24.5ZM8.66397 24.5H7.57967V25.5H8.66397V24.5ZM1.5 18.4203V11.7302H0.5V18.4203H1.5ZM1.8395 11.2801C10.4411 8.82256 19.5589 8.82256 28.1605 11.2801L28.4352 10.3186C19.6541 7.80973 10.3459 7.80973 1.56478 10.3186L1.8395 11.2801ZM7.57967 24.5C4.22196 24.5 1.5 21.778 1.5 18.4203H0.5C0.5 22.3303 3.66968 25.5 7.57967 25.5V24.5ZM8.72196 24.4656C8.71039 24.4868 8.68814 24.5 8.66397 24.5V25.5C9.05409 25.5 9.41305 25.2869 9.59986 24.9444L8.72196 24.4656ZM9.59986 24.9444C11.9313 20.6702 18.0687 20.6702 20.4001 24.9444L21.278 24.4656C18.5676 19.4964 11.4324 19.4964 8.72196 24.4656L9.59986 24.9444ZM21.336 24.5C21.3119 24.5 21.2896 24.4868 21.278 24.4656L20.4001 24.9444C20.587 25.2869 20.9459 25.5 21.336 25.5V24.5ZM28.5 18.4203C28.5 21.778 25.778 24.5 22.4203 24.5V25.5C26.3303 25.5 29.5 22.3303 29.5 18.4203H28.5ZM29.5 11.7302C29.5 11.0748 29.0655 10.4987 28.4352 10.3186L28.1605 11.2801C28.3615 11.3376 28.5 11.5212 28.5 11.7302H29.5ZM1.5 11.7302C1.5 11.5212 1.63855 11.3376 1.8395 11.2801L1.56478 10.3186C0.934524 10.4987 0.5 11.0748 0.5 11.7302H1.5ZM5.52999 7.32874L4.53576 9.8143L5.46424 10.1857L6.45846 7.70013L5.52999 7.32874ZM23.5415 7.70013L24.5358 10.1857L25.4642 9.8143L24.47 7.32874L23.5415 7.70013ZM9.70813 5.5H20.2919V4.5H9.70813V5.5ZM24.47 7.32874C23.7866 5.62028 22.1319 4.5 20.2919 4.5V5.5C21.723 5.5 23.01 6.37133 23.5415 7.70013L24.47 7.32874ZM6.45846 7.70013C6.98998 6.37133 8.27697 5.5 9.70813 5.5V4.5C7.86806 4.5 6.21337 5.62028 5.52999 7.32874L6.45846 7.70013Z" fill="#EF5881"/>
</svg>
