<svg width="30" height="30" viewBox="0 0 30 30" fill="none" xmlns="http://www.w3.org/2000/svg">
<path d="M3.22174 25.4761L3.11697 25.965L3.11697 25.965L3.22174 25.4761ZM26.7783 25.4761L26.883 25.965L26.883 25.965L26.7783 25.4761ZM26.7783 4.52392L26.883 4.03502L26.883 4.03502L26.7783 4.52392ZM3.22174 4.52392L3.3265 5.01282L3.22174 4.52392ZM13 11L13.2774 10.584C13.1239 10.4817 12.9266 10.4722 12.7641 10.5592C12.6015 10.6462 12.5 10.8156 12.5 11H13ZM13 19H12.5C12.5 19.1844 12.6015 19.3538 12.7641 19.4408C12.9266 19.5278 13.1239 19.5183 13.2774 19.416L13 19ZM19 15L19.2774 15.416C19.4164 15.3233 19.5 15.1672 19.5 15C19.5 14.8328 19.4164 14.6767 19.2774 14.584L19 15ZM0.5 7.27218V22.7278H1.5V7.27218H0.5ZM29.5 22.7278V7.27218H28.5V22.7278H29.5ZM3.11697 25.965C10.9501 27.6435 19.0499 27.6435 26.883 25.965L26.6735 24.9872C18.9785 26.6361 11.0215 26.6361 3.3265 24.9872L3.11697 25.965ZM26.883 4.03502C19.0499 2.35649 10.9501 2.35649 3.11697 4.03502L3.3265 5.01282C11.0215 3.36389 18.9785 3.36389 26.6735 5.01282L26.883 4.03502ZM29.5 7.27218C29.5 5.71108 28.4095 4.36211 26.883 4.03502L26.6735 5.01282C27.7389 5.24111 28.5 6.18262 28.5 7.27218H29.5ZM28.5 22.7278C28.5 23.8174 27.7389 24.7589 26.6735 24.9872L26.883 25.965C28.4095 25.6379 29.5 24.2889 29.5 22.7278H28.5ZM0.5 22.7278C0.5 24.2889 1.59053 25.6379 3.11697 25.965L3.3265 24.9872C2.26113 24.7589 1.5 23.8174 1.5 22.7278H0.5ZM1.5 7.27218C1.5 6.18262 2.26113 5.24111 3.3265 5.01282L3.11697 4.03502C1.59053 4.36211 0.5 5.71108 0.5 7.27218H1.5ZM12.5 11V19H13.5V11H12.5ZM13.2774 19.416L19.2774 15.416L18.7226 14.584L12.7226 18.584L13.2774 19.416ZM19.2774 14.584L13.2774 10.584L12.7226 11.416L18.7226 15.416L19.2774 14.584Z" fill="#EF5881"/>
</svg>
